<svg viewBox="0 0 32 32" xmlns="http://www.w3.org/2000/svg" width="80%" aspect-ratio='xMinYMin'><path fill="#000000"  d="m8.7539062 7.0019531c-1.2020893.0170213-2.2382954.1522343-3.0996093.5234375s-1.6367188 1.1878159-1.6367188 2.1972656v4.0449218c-1.2497688 1.188939-2.0351562 2.861975-2.0351562 4.714844 0 3.587946 2.929629 6.517578 6.5175781 6.517578 1.2488691 0 2.387382-.377232 3.357422-1h9.953125c.54994.605195 1.331755 1 2.207031 1 .875104 0 1.656854-.394016 2.207031-1h.675782c1.690797 0 3.117187-1.351784 3.117187-3.039062v-2.060547c0-2.628468-1.778258-4.823513-4.164062-6.546875-2.385805-1.723363-5.469712-3.0542778-8.550782-3.9707035-3.081069-.9164257-6.144649-1.4149019-8.5488278-1.3808594zm.0273438 2c2.095821-.029676 5.032242.4286758 7.951172 1.2968749 2.91893.868199 5.835023 2.148613 7.949219 3.675781 1.741362 1.257857 2.864458 2.628172 3.210937 4.025391h-12.972656c-.260794-3.352574-3.002783-6.035156-6.419922-6.035156-.878702 0-1.7160519.178031-2.4824219.496094v-2.7382818c0-.1378001-.023452-.1649258.4277344-.359375.4511861-.194449 1.288027-.34649 2.3359375-.3613281zm-.28125 4.9628909c2.50707 0 4.517578 2.01051 4.517578 4.517578s-2.010508 4.517578-4.517578 4.517578c-2.5070695 0-4.5175781-2.01051-4.5175781-4.517578s2.0105086-4.517578 4.5175781-4.517578zm0 3.517578a1 1 0 0 0 0 2 1 1 0 0 0 0-2zm6.208984 2.517578h13.308594v.960938c0 .564721-.467985 1.039062-1.117187 1.039062h-13.044922c.383809-.607706.675477-1.28134.853515-2z"/></svg>
